<svg width="1271" height="119" viewBox="0 0 1271 119" fill="none" xmlns="http://www.w3.org/2000/svg">
<path d="M0 80.5671C56.629 58.8112 97.751 44.4938 123.365 37.6184C180.997 22.1442 233.838 16.7004 271.576 13.1026C310.898 9.35609 396.178 10.4437 460.568 15.1416C486.303 17.0183 518.27 21.1485 556.469 27.529C595.29 34.5179 621.915 39.7267 636.342 43.1519C663.456 49.5857 712.044 63.0062 727.148 66.8378C780.013 80.2469 818.382 93.6265 855.867 101.151C922.232 114.474 955.219 116.344 1010.73 118.717C1060.25 117.53 1096.93 115.655 1120.78 113.091C1161.25 108.741 1208.16 98.9749 1234.94 93.8854C1285.4 84.2988 1353.89 65.3574 1440.43 37.0633L1440.73 0.73571L0.664 1.10014L0 80.5671Z" fill="#E5E5E5"/>
</svg>
