<svg width="1441" height="156" viewBox="0 0 1441 156" fill="none" xmlns="http://www.w3.org/2000/svg">
<path opacity="0.1" d="M1.54297 0C92.2713 1.05303 149.456 30.8666 293.453 68.0184C389.451 92.7862 545.148 101.422 760.543 93.9269C470.879 177.397 217.879 174.46 1.54297 85.1177" fill="#DE8472"/>
<path opacity="0.1" d="M101.543 118.876C278.956 82.0084 427.691 59.6316 547.747 51.7458C667.802 43.86 812.068 47.4534 980.543 62.5261C932.613 63.7163 811.846 84.9726 618.243 126.295C424.639 167.618 252.406 165.145 101.543 118.876Z" fill="#DE8472"/>
<path opacity="0.2" d="M1047.54 58.641C1132.37 33.2972 1280.63 19.9903 1440.54 45.6003V136.237C1272.72 88.4898 1141.72 62.6245 1047.54 58.641Z" fill="#DE8472"/>
<path d="M0 74.97C56.629 96.7259 97.751 111.043 123.365 117.919C180.997 133.393 233.838 138.837 271.576 142.435C310.898 146.181 396.178 145.093 460.568 140.395C486.303 138.519 518.27 134.389 556.469 128.008C595.29 121.019 621.915 115.81 636.342 112.385C663.456 105.951 712.044 92.531 727.148 88.6993C780.013 75.2902 818.382 61.9106 855.867 54.3858C922.232 41.063 955.219 39.1931 1010.73 36.8203C1060.25 38.0067 1096.93 39.8822 1120.78 42.4458C1161.25 46.7963 1208.16 56.5622 1234.94 61.6517C1285.4 71.2383 1353.89 90.1797 1440.43 118.474L1440.73 154.801L0.664 154.437L0 74.97Z" fill="#DE8472"/>
</svg>
