<svg width="36" height="36" viewBox="0 0 36 36" fill="none" xmlns="http://www.w3.org/2000/svg">
<path d="M30 33H6C5.20435 33 4.44129 32.6839 3.87868 32.1213C3.31607 31.5587 3 30.7956 3 30V13.5735C3.02494 13.0777 3.17067 12.5954 3.42452 12.1688C3.67837 11.7421 4.03264 11.384 4.4565 11.1255L16.4565 3.92549C16.9226 3.64603 17.4558 3.49841 17.9993 3.49841C18.5427 3.49841 19.0759 3.64603 19.542 3.92549L31.542 11.1255C32.4435 11.67 32.997 12.645 33 13.698V30C33 30.7956 32.6839 31.5587 32.1213 32.1213C31.5587 32.6839 30.7956 33 30 33ZM6 14.802V30H30V14.802L18 22.8015L6 14.802ZM18 6.49799L7.974 12.513L18 19.197L28.0245 12.513L18 6.49799Z" fill="#643834"/>
</svg>
