<svg width="1271" height="504" viewBox="0 0 1271 504" fill="none" xmlns="http://www.w3.org/2000/svg">
<rect x="1" width="1270" height="504" fill="url(#paint0_linear)"/>
<path opacity="0.1" d="M1.36133 314.617C81.4009 315.67 131.848 345.483 258.881 382.635C343.57 407.403 480.924 416.039 670.943 408.544C415.405 492.013 192.211 489.077 1.36133 399.734" fill="#DE8472"/>
<path opacity="0.1" d="M89.5803 433.493C246.092 396.625 377.304 374.248 483.216 366.363C589.128 358.477 716.398 362.07 865.025 377.143C822.741 378.333 716.202 399.589 545.407 440.912C374.613 482.235 222.67 479.762 89.5803 433.493Z" fill="#DE8472"/>
<path opacity="0.2" d="M924.131 373.258C998.968 347.914 1129.75 334.607 1270.83 360.217V450.854C1122.78 403.107 1007.21 377.241 924.131 373.258Z" fill="#DE8472"/>
<path d="M0 389.587C49.9575 411.343 86.2349 425.66 108.831 432.535C159.674 448.01 206.289 453.453 239.581 457.051C274.271 460.798 349.504 459.71 406.308 455.012C429.011 453.136 457.212 449.005 490.911 442.625C525.158 435.636 548.647 430.427 561.374 427.002C585.294 420.568 628.158 407.148 641.482 403.316C688.119 389.907 721.968 376.527 755.037 369.003C813.583 355.68 842.684 353.81 891.653 351.437C935.339 352.623 967.702 354.499 988.739 357.063C1024.44 361.413 1065.83 371.179 1089.45 376.269C1133.96 385.855 1194.39 404.796 1270.73 433.091L1271 469.418L0.585774 469.054L0 389.587Z" fill="#DE8472"/>
<defs>
<linearGradient id="paint0_linear" x1="48.4626" y1="252" x2="1043.68" y2="252" gradientUnits="userSpaceOnUse">
<stop stop-color="#DE8472"/>
<stop offset="1" stop-color="#FFEFD0"/>
</linearGradient>
</defs>
</svg>
