<svg width="36" height="35" viewBox="0 0 36 35" fill="none" xmlns="http://www.w3.org/2000/svg">
<path d="M17.99 34.282C13.0727 34.282 12.4931 34.2573 10.5741 34.1775C9.0777 34.1307 7.60063 33.8415 6.20655 33.3221C5.01357 32.8807 3.93018 32.2081 3.02516 31.3472C2.12014 30.4863 1.41328 29.4558 0.949472 28.3213C0.424377 26.9908 0.141157 25.5851 0.111938 24.1643C-1.48929e-08 22.3434 0 21.7465 0 17.1068C0 12.4176 0.0259856 11.8702 0.111938 10.055C0.141796 8.63612 0.425006 7.23239 0.949472 5.90375C1.41275 4.76774 2.12009 3.73608 3.02631 2.87468C3.93253 2.01328 5.01771 1.34106 6.21255 0.900958C7.60906 0.399543 9.08564 0.129525 10.5781 0.102641C12.4871 -1.91183e-07 13.1147 0 17.99 0C22.9473 0 23.5169 0.0247096 25.4059 0.102641C26.9011 0.129251 28.3842 0.399159 29.7835 0.900958C30.978 1.34157 32.0629 2.01397 32.969 2.87531C33.8752 3.73664 34.5827 4.76803 35.0465 5.90375C35.5802 7.25328 35.8661 8.67885 35.8881 10.1177C36 11.9386 36 12.5336 36 17.1714C36 21.8093 35.972 22.4175 35.8881 24.2175C35.8582 25.6397 35.5743 27.0466 35.0485 28.3783C34.5835 29.5137 33.8754 30.5447 32.969 31.4059C32.0626 32.2672 30.9778 32.9398 29.7835 33.3811C28.3842 33.8791 26.9071 34.149 25.4139 34.1775C23.5049 34.282 22.8793 34.282 17.99 34.282ZM17.922 3.0089C13.0328 3.0089 12.525 3.03171 10.6161 3.11344C9.47604 3.12761 8.34696 3.32755 7.27796 3.70457C6.49825 3.98877 5.78983 4.42517 5.19835 4.98565C4.60686 5.54612 4.14546 6.21824 3.84387 6.95867C3.44409 7.98507 3.2342 9.07041 3.22221 10.1652C3.11627 12.0071 3.11627 12.4899 3.11627 17.1068C3.11627 21.6686 3.13426 22.2217 3.22221 24.0522C3.2402 25.1356 3.45008 26.2095 3.84387 27.2264C4.45553 28.7223 5.70283 29.9046 7.27996 30.4786C8.34758 30.858 9.47643 31.058 10.6161 31.0698C12.551 31.1762 13.0607 31.1762 17.922 31.1762C22.8253 31.1762 23.333 31.1534 25.226 31.0698C26.3662 31.0566 27.4954 30.8567 28.5641 30.4786C29.3397 30.1923 30.0441 29.7556 30.6325 29.1963C31.221 28.6371 31.6806 27.9675 31.9822 27.2302C32.382 26.2038 32.5919 25.1166 32.6039 24.0218H32.6259C32.7118 22.2046 32.7118 21.7199 32.7118 17.0764C32.7118 12.4328 32.6898 11.9443 32.6039 10.1291C32.5858 9.04657 32.3756 7.97468 31.9822 6.95867C31.6813 6.22031 31.222 5.54964 30.6335 4.98939C30.045 4.42913 29.3403 3.99157 28.5641 3.70457C27.4947 3.32442 26.3654 3.12674 25.226 3.11344C23.2931 3.0089 22.7873 3.0089 17.922 3.0089ZM17.99 25.8864C16.1622 25.8875 14.375 25.3732 12.8546 24.4084C11.3342 23.4436 10.1489 22.0717 9.44848 20.4663C8.74808 18.8609 8.56411 17.094 8.91983 15.3891C9.27555 13.6842 10.155 12.118 11.4469 10.8884C12.7388 9.65885 14.3852 8.82123 16.1778 8.4815C17.9704 8.14177 19.8286 8.31518 21.5176 8.9798C23.2065 9.64442 24.6502 10.7704 25.6661 12.2153C26.682 13.6602 27.2245 15.3592 27.2249 17.0973C27.2217 19.4261 26.248 21.6587 24.517 23.3061C22.7861 24.9535 20.439 25.8814 17.99 25.8864ZM17.99 11.3912C16.804 11.3912 15.6446 11.7257 14.6584 12.3522C13.6723 12.9788 12.9037 13.8694 12.4498 14.9113C11.9959 15.9533 11.8772 17.0998 12.1086 18.206C12.3399 19.3121 12.9111 20.3281 13.7497 21.1256C14.5884 21.9231 15.6569 22.4662 16.8201 22.6862C17.9834 22.9062 19.1891 22.7933 20.2848 22.3617C21.3806 21.9301 22.3171 21.1992 22.9761 20.2615C23.635 19.3238 23.9867 18.2213 23.9867 17.0935C23.983 15.5822 23.35 14.1339 22.2262 13.0653C21.1024 11.9966 19.5793 11.3947 17.99 11.3912ZM27.5847 10.036C27.3017 10.035 27.0217 9.981 26.7607 9.87711C26.4996 9.77321 26.2627 9.62145 26.0633 9.43047C25.6607 9.04478 25.4357 8.52281 25.4379 7.97937C25.44 7.43594 25.669 6.91557 26.0747 6.53273C26.4803 6.14989 27.0292 5.93595 27.6007 5.93796C28.1722 5.93998 28.7194 6.15779 29.122 6.54348C29.5246 6.92917 29.7496 7.45115 29.7475 7.99458C29.7454 8.53801 29.5163 9.05839 29.1107 9.44123C28.7051 9.82406 28.1562 10.038 27.5847 10.036Z" fill="#643834"/>
</svg>
