<svg width="36" height="35" viewBox="0 0 36 35" fill="none" xmlns="http://www.w3.org/2000/svg">
<path d="M18.0724 0.000102108C8.19497 0.000102108 0.144724 7.62783 0.144724 16.9868C0.144724 19.9865 0.976884 22.9004 2.53266 25.4716L0 34.282L9.49749 31.9166C12.1206 33.2707 15.0693 33.9906 18.0724 33.9906C27.9497 33.9906 36 26.3629 36 17.0039C36 12.4616 34.1367 8.19348 30.7538 4.98812C29.0952 3.40074 27.1197 2.14215 24.9425 1.28576C22.7652 0.429371 20.4298 -0.00767935 18.0724 0.000102108ZM18.0905 2.86264C22.0704 2.86264 25.797 4.33677 28.6191 7.01076C30.0041 8.32265 31.1022 9.8807 31.8503 11.5956C32.5985 13.3104 32.982 15.1483 32.9789 17.0039C32.9789 24.7859 26.2854 31.111 18.0724 31.111C15.395 31.111 12.7719 30.4425 10.4925 29.1397L9.94975 28.8483L4.30553 30.2539L5.80703 25.0431L5.44523 24.4945C3.95085 22.2468 3.16042 19.6433 3.16583 16.9868C3.18392 9.2048 9.85929 2.86264 18.0905 2.86264ZM11.7226 9.13624C11.4332 9.13624 10.9447 9.23908 10.5286 9.66761C10.1307 10.0961 8.95477 11.1417 8.95477 13.2158C8.95477 15.307 10.5648 17.3125 10.7638 17.6039C11.0171 17.8953 13.9477 22.1805 18.4523 23.9975C19.5196 24.4603 20.3518 24.7174 21.003 24.9059C22.0703 25.2316 23.0472 25.1802 23.8251 25.0773C24.6935 24.9573 26.4663 24.0489 26.8462 23.0547C27.2261 22.0605 27.2261 21.2206 27.1176 21.0321C26.991 20.8607 26.7015 20.7578 26.2492 20.5693C25.797 20.3293 23.5899 19.3008 23.192 19.1637C22.7759 19.0266 22.5226 18.958 22.1789 19.3694C21.8894 19.7979 21.0211 20.7578 20.7678 21.0321C20.4965 21.3235 20.2432 21.3577 19.809 21.1521C19.3387 20.9292 17.8915 20.4836 16.191 19.0437C14.8523 17.9124 13.9658 16.524 13.6945 16.0955C13.4774 15.6841 13.6764 15.427 13.8935 15.2384C14.0925 15.0499 14.3819 14.7413 14.5628 14.4842C14.798 14.2442 14.8704 14.0557 15.0151 13.7814C15.1598 13.49 15.0874 13.2501 14.9789 13.0444C14.8703 12.8558 13.9658 10.7303 13.5859 9.89044C13.2241 9.06767 12.8623 9.17052 12.5729 9.15338C12.3196 9.15338 12.0301 9.13624 11.7226 9.13624Z" fill="#643834"/>
</svg>
